<?xml version="1.0" encoding="utf-8"?>
<!-- Generator: Adobe Illustrator 23.0.1, SVG Export Plug-In . SVG Version: 6.00 Build 0)  -->
<svg version="1.1" id="Capa_1" xmlns="http://www.w3.org/2000/svg" xmlns:xlink="http://www.w3.org/1999/xlink" x="0px" y="0px"
	 viewBox="0 0 2870.6 655" style="enable-background:new 0 0 2870.6 655;" xml:space="preserve">
<style type="text/css">
	.st0{fill:#010101;}
	.st1{fill:#040404;}
	.st2{fill:#070707;}
</style>
<g>
	<path d="M1665.8,300.5c-0.1-96.7-0.1-193.3,0-290c0-4-1.3-4.5-4.7-4.5c-24,0.1-48,0.2-72,0c-4.2,0-5.5,0.7-5.5,5.3
		c0.2,48.7,0.1,97.3,0.1,146c0,1.6,0,3.2,0,6c-1.3-1.6-1.9-2.2-2.4-2.9c-38.9-49.9-77.8-99.8-116.5-149.8c-2.5-3.2-4.9-4.6-9.1-4.6
		c-22.5,0.2-45,0.2-67.5,0c-3.7,0-4.6,0.8-4.6,4.6c0.1,96.5,0.1,193,0,289.5c0,3.7,0.8,4.7,4.6,4.6c24.2-0.2,48.3-0.2,72.5,0
		c4.2,0,5.1-1,5.1-5.1c-0.2-50.7-0.1-101.3-0.1-152c0-1.7,0-3.5,0-6.3c1.7,2.1,2.8,3.3,3.7,4.6c40.3,51.8,80.6,103.5,120.8,155.3
		c2,2.5,3.9,3.4,7,3.4c21.3-0.1,42.7-0.1,64,0C1664.6,304.7,1665.8,304.2,1665.8,300.5z"/>
	<path d="M639,310.5c3.4-0.2,4.8-0.5,4.8-4.5c-0.2-21.3-0.2-42.7,0-64c0-3.6-1-4.4-4.4-4.4c-7.8-0.1-15.7,0.6-22.9-3.5
		c-13.7-7.8-24.2-19.1-34.9-30.9c15.1-6.6,27.4-14.9,36.1-24.1c20.8-22,29.8-48.3,28.2-78.3c-1.5-27-10.4-50.7-31.1-69
		c-22.4-19.7-49.4-27.8-78.6-28.1c-50.3-0.6-100.6-0.1-151-0.3c-3.9,0-4.5,1.1-4.5,4.7c0.1,98,0.1,196,0,293.9
		c0,3.7,0.9,4.6,4.6,4.6c25.3-0.2,50.7-0.2,76,0c4.1,0,4.8-1.3,4.8-5c-0.1-28.7,0-57.3-0.1-86c0-3.1,0.5-4.4,4-4.2
		c5.8,0.3,11.7,0.2,17.5,0c2.5-0.1,4.2,0.7,6,2.6c15.3,16.3,28.6,34.3,43.9,50.5C564.9,293.9,596.8,313.6,639,310.5z M469.6,149.2
		c-3.3,0-4.2-0.8-4.1-4.1c0.2-10.8,0.1-21.6,0.1-32.5c0-10.8,0.1-21.6-0.1-32.5c0-2.8,0.8-3.6,3.6-3.6c18.5,0.1,37,0,55.4,0.1
		c7.4,0.1,14.6,1.5,21.4,4.4c14.3,6.2,20.8,17.9,19.9,35.6c-0.7,13.7-10.4,25.2-25,29.7c-5.9,1.8-12,2.7-18.2,2.7
		C504.9,149.1,487.3,149,469.6,149.2z"/>
	<path d="M287.7,130c-21.5,0.1-43,0.1-64.5,0.1c-21.5,0-43,0.1-64.5-0.1c-3.2,0-4.2,0.8-4.1,4.1c0.2,17.5,0.2,35,0,52.5
		c0,3.6,1.1,4.3,4.4,4.3c16.5-0.2,33,0.1,49.5-0.2c4.3-0.1,5.2,1.3,5.1,5.3c-0.3,8.8-0.3,17.7,0,26.5c0.1,3.6-1.3,5.3-4.2,6.9
		c-11.7,6.4-24.2,9-37.3,9.6c-24.7,1.2-46.9-5.3-64.5-23.5c-17-17.5-23.1-39.1-22.4-63.1c1.2-43.5,36-86.2,92.2-77.3
		c19.8,3.1,37,11.7,52.2,24.3c3.2,2.6,4.5,2.1,6.9-0.8c14-17.1,28.2-34.2,42.5-51c2.7-3.1,2.6-4.5-0.6-7.2
		c-43-35.4-92.6-46-146.5-37.7C46.5,15.7-12.5,91.2,2.3,182.3c9.9,61.2,46.3,102,105.2,119.7c66.3,20,127.5,6.2,182.6-35.6
		c2.1-1.6,2.2-3.4,2.2-5.6c0-42.2-0.1-84.3,0.1-126.5C292.3,130.7,291.1,130,287.7,130z"/>
	<path d="M967.9,304.7c3.4,0,4.4-0.8,4.4-4.3c-0.2-20.2-0.3-40.3,0-60.5c0.1-5-1.5-5.9-6.1-5.9c-49.8,0.2-99.6,0.1-149.5,0.2
		c-3.9,0-5.1-0.9-5-4.9c0.3-12,0.3-24,0-36c-0.1-4.8,0.8-6.4,6.1-6.4c44.2,0.3,88.3,0.1,132.5,0.2c4,0,5-1,5-5
		c-0.2-18.3-0.2-36.7,0-55c0.1-4.3-0.8-5.8-5.5-5.8c-44.2,0.2-88.3,0.1-132.5,0.2c-4.1,0-5.8-0.5-5.6-5.2c0.4-11.5,0.3-23,0-34.5
		c-0.1-4.3,0.8-5.5,5.3-5.5c49.5,0.2,99,0.1,148.5,0.2c3.5,0,4.4-0.8,4.4-4.3c-0.2-20.5-0.2-41,0-61.5c0-4-1.1-4.9-4.9-4.9
		c-76.6,0.1-153.3,0.1-229.9,0c-4.7,0-5.3,1.5-5.3,5.7c0.1,48,0.1,96,0.1,144c0,48,0,96-0.1,144c0,3.5,0.3,5.1,4.6,5.1
		C812.3,304.6,890.1,304.6,967.9,304.7z"/>
	<path d="M1293.5,234c-49.8,0.2-99.6,0.1-149.5,0.2c-4.2,0-5.3-1.1-5.2-5.2c0.3-12.2,0.3-24.3,0-36.5c-0.1-4.3,0.9-5.5,5.4-5.5
		c44.2,0.2,88.3,0,132.5,0.2c4.6,0,5.4-1.3,5.3-5.5c-0.2-18.2-0.2-36.3,0-54.5c0.1-4.3-0.8-5.8-5.5-5.7c-44.3,0.2-88.7,0.1-133,0.2
		c-3.6,0-4.8-0.7-4.7-4.6c0.3-11.7,0.4-23.3,0-35c-0.1-4.6,1.2-5.6,5.7-5.6c49.2,0.2,98.3,0,147.5,0.2c4.3,0,5.1-1.2,5-5.2
		c-0.2-20-0.2-40,0-60c0-4.2-0.6-5.6-5.3-5.5c-76.7,0.2-153.3,0.2-230,0c-4.2,0-5.1,1-5.1,5.1c0.2,48,0.1,96,0.1,144
		c0,48.3,0,96.7-0.1,145c0,3.1,0.2,4.6,4.1,4.6c78.2-0.1,156.3-0.1,234.5,0c3.3,0,4.1-0.8,4.1-4.1c-0.2-20.2-0.2-40.3,0-60.5
		C1299.4,235.4,1298.5,234,1293.5,234z"/>
	<path d="M2022.3,293.4c3-2.1,2.3-3.3,0.1-5.5c-15.4-15.5-30.5-31.2-45.9-46.7c-2.3-2.4-3-3.9-0.7-6.9
		c15.9-21.1,27.8-44.5,39.1-68.2c1.3-2.7,0.7-3.6-1.8-4.7c-7-3-14-6.2-20.8-9.6c-3.2-1.6-4.3-1-5.7,2.3c-8.8,20.1-19.1,39.5-30.9,58
		c-2.2,3.4-3.3,4.2-6.6,0.9c-17.9-18.6-36.1-36.9-54.2-55.4c-3.2-3.3-6.4-6.6-9.8-10.2c9-3.3,17.2-6.8,25.1-11.1
		c7.9-4.3,15.4-9.3,22.1-15.3c32.2-28.4,29.8-79.9-4.9-105.2c-18-13.1-38.2-15.8-59.8-13.1c-50.7,6.3-78.9,58.5-56.2,104.3
		c5.7,11.4,13.3,21.5,21.7,31.7c-14.9,6.2-28.4,13.6-40.7,23.1c-45.4,35.3-38.2,103.9,4.8,130.9c31.1,19.5,64.4,20.6,98.4,9.5
		c21.1-6.9,38.4-20.2,53.7-36.1c2.4-2.5,3.8-3.2,6.6-0.2c13.4,14.1,27.2,28,40.6,42c2,2.1,3.3,2.9,5.9,0.7
		C2008.9,303.3,2015.5,298.2,2022.3,293.4z M1881.2,29.6c18.1,0,33.4,9.9,39.3,25.5c6.5,17.3,1.6,37.6-11.9,49.8
		c-11.7,10.6-25.7,16.9-40.2,22.3c-1.6,0.6-2.7,0.5-3.9-0.8c-9.8-10.9-19.9-21.7-24.9-35.7C1828.4,60.1,1846.3,29.3,1881.2,29.6z
		 M1930.2,243.7c-16.6,17.1-34.9,31.3-59.3,35.4c-4.3,0.7-8.6,0.9-12.1,1.2c-23.8-0.7-43.3-8.2-55.6-28.8
		c-13.8-23.2-7.8-52.6,14.3-72c9.6-8.4,20.9-14,32.6-18.9c2.6-1.1,3.6,0.2,5,1.7c17.4,17.9,34.8,35.8,52.2,53.7
		c7.4,7.6,14.8,15.3,22.3,22.9C1931.1,240.4,1932.4,241.4,1930.2,243.7z"/>
	<path d="M2540.5,1.8c-51.5-1.9-94.5,16.6-126.5,57.5c-25,31.8-35,68.6-32.2,108.9c2.6,37.3,15.7,70.6,42.5,97
		c45.9,45.1,100.9,55.3,160.8,35.6c60.7-20,99.8-78.8,99.8-145.6c0-6.3-0.3-12.6-0.9-18.9C2675.7,60.3,2616.6,4.6,2540.5,1.8z
		 M2620.2,238.8c-24.1,29.6-57,41.4-94.9,39.2c-50.8-2.9-99.3-42-107.7-103.7c-0.9-6.4-1.2-12.9-1.6-18.3
		c1.3-41.8,15.4-76.6,48.8-101.4c57.5-42.7,143.3-20.8,172.4,44.6C2659.3,148.7,2654.8,196.4,2620.2,238.8z"/>
	<path d="M2334,259.3c1.8-1.9,1.5-2.7-0.2-4.2c-5.4-5.2-11-10.2-15.9-15.8c-3.2-3.6-5-3.3-8.4-0.1c-23.3,21.4-49.1,37.2-82,39
		c-38.7,2.2-71-10.6-96.1-40.1c-36.4-42.9-38.9-110.9-6.4-157.2c36.6-52.2,101.8-58.2,145.4-36.2c13.6,6.9,25.9,15.7,37.1,26
		c3.1,2.9,4.6,2.5,7.2-0.5c5.3-6.2,10.9-12.1,16.6-17.9c2.4-2.5,2.7-3.9-0.2-6.5c-24.9-23.6-53.9-38.6-88.2-42.7
		c-31.5-3.7-62.3-1.3-91,13.3c-56.8,29-82,77.4-84.7,139.3c0,8.2,0.6,16.2,1.7,24.1c11,76.5,69.9,124.4,134,129.3
		C2254.5,313,2298.1,296.4,2334,259.3z"/>
	<path d="M2796.6,0.6c-41,0-74.8,33-74.8,73.2c-0.1,42.6,32.1,75.7,73.5,75.8c41.7,0,74.9-32.8,75.3-74.5
		C2871,34.3,2837.6,0.7,2796.6,0.6z M2797.8,143.1c-36.4,1.3-67.9-27.8-69.1-63.8c-1.3-39.7,27-70.8,65.5-72.1
		c37.6-1.3,68.5,27.9,69.2,66.8C2864,115,2832,142.2,2797.8,143.1z"/>
	<path d="M1504.6,505.6c0-4.7,0-9.5,0-15.7c8.2,12,15.5,22.7,23.1,33.8c7.7-11.3,15-22.1,23.1-34c0,3,0,4.6,0,6.2
		c0,14,0.1,28-0.1,42c0,3.2,1.6,2.9,3.7,3c2.2,0.1,3.7,0.1,3.7-3c-0.1-19.2-0.1-38.3,0-57.5c0-2.2-0.7-2.7-2.8-2.8
		c-2.9-0.1-4.8,0.5-6.5,3.2c-6.7,10.4-13.7,20.6-20.8,31.3c-1.3-1.9-2.2-3.3-3.1-4.7c-6.1-9.1-12.3-18.2-18.2-27.4
		c-2.1-3.2-4.9-2.3-7.5-2.2c-2.2,0-1.3,2-1.3,3.1c-0.1,19,0,38-0.1,57c0,3,1.3,3,3.6,3.1c2.4,0,3.6-0.4,3.5-3.2
		C1504.5,526.9,1504.6,516.3,1504.6,505.6z"/>
	<path class="st0" d="M1044.3,590.7c-2.4-0.2-5.2-1.3-7.1,1.8c-4.3,6.7-8.8,13.3-13.2,19.9c-2.7,4.1-5.5,8.2-8.4,12.5
		c-7.4-11-14.5-21.5-21.3-32.1c-2.1-3.2-4.9-2.5-7.4-2.2c-2.7,0.3-1.4,2.9-1.4,4.4c-0.1,18.3,0,36.6-0.1,55c0,2.8,0.6,3.7,3.5,3.7
		c2.9,0,3.6-0.9,3.6-3.7c-0.1-11.5-0.1-23,0-34.5c0-3.7-0.5-7.5,0.6-12c7.7,11.3,15,22,22.5,33c7.5-11,14.9-21.8,22.2-32.7
		c0.3,0.1,0.7,0.2,1,0.3c0,15.1,0.1,30.2-0.1,45.3c0,2.9,0.3,4.4,3.9,4.4c3.8,0,3.3-2,3.3-4.3c0-18.2,0-36.3-0.1-54.5
		C1045.6,593.6,1047.1,591,1044.3,590.7z"/>
	<path class="st0" d="M1565.5,595.3c0-2.3,0.9-4.8-3.4-4.9c-4.6-0.1-3.6,2.6-3.6,5.1c0,14.8,0,29.5,0,45.8
		c-4.2-5.3-7.5-9.5-10.8-13.7c-9-11.5-18.2-22.9-27-34.6c-2.2-2.9-4.8-2.8-7.5-2.3c-2.6,0.5-1.3,3-1.3,4.6
		c-0.1,18.1,0,36.3-0.1,54.4c0,2.8,0.4,4,3.7,4.1c3.8,0.1,3.4-2,3.4-4.3c0-15.4,0-30.8,0-47.6c7.9,9.9,14.8,18.7,21.8,27.6
		c5.7,7.2,11.4,14.3,16.9,21.6c1.8,2.4,3.9,3,6.4,2.5c3.1-0.6,1.5-3.3,1.5-4.9C1565.6,630.9,1565.6,613.1,1565.5,595.3z"/>
	<path d="M1052.8,499c1.2-12.1-7.2-20.9-20.8-21.3c-8.3-0.2-16.7,0.1-25-0.1c-3.4-0.1-4.4,0.7-4.4,4.3c0.2,18.1,0.1,36.3,0.1,54.4
		c0,2.4-0.7,4.8,3.5,4.7c4,0,3.8-1.9,3.7-4.6c-0.1-2-0.1-4,0-6c0.2-4.6-2-10.6,0.9-13.4c2.9-2.8,8.9-0.5,13.5-0.9
		c2.8-0.3,4.6,0.9,6.2,3.1c3.9,5.6,8.5,10.7,12,16.5c3,5.1,6.9,5.7,12.4,4.7c-6.4-8.6-12.5-16.8-18.9-25.3
		C1047,511.7,1052,506.8,1052.8,499z M1011.5,509.7c-2.1,0.1-1.6-1.7-1.6-2.9c0-3.3,0-6.7,0-10.7c0.5-3.3-1.9-8.8,0.9-11.2
		c2.3-2,7.6-0.8,11.6-0.7c4.1,0,8.3,0,12.4,0.5c6.6,0.9,10.5,5.2,10.9,11.1c0.4,6.1-2.7,10.9-8.9,12.8
		C1028.6,511.1,1020,509.3,1011.5,509.7z"/>
	<path d="M1685.5,516.1c2.6-0.3,4.3,0.8,5.8,2.9c4.1,5.8,8.9,11.3,12.6,17.3c3.1,5,6.9,4.9,12,4c-6.5-8.7-12.6-16.9-18.8-25.2
		c9.6-3.1,13.7-6.3,15.8-12c4.8-12.9-4.3-24.9-19.5-25.4c-8.8-0.3-17.6,0-26.5-0.1c-2.3,0-3.2,0.4-3.1,3c0.1,19.1,0.1,38.3,0,57.4
		c0,2.1,0.6,2.8,2.8,2.9c3.3,0.2,5-0.4,4.5-4.2c-0.3-2.1-0.1-4.3,0-6.5c0.1-4.5-1.6-10.6,0.7-13
		C1674.5,514,1680.7,516.5,1685.5,516.1z M1671.6,508.8c-2-2.4-0.8-7.6-0.7-11.6c0.1-4.3-1.9-9.9,0.9-12.4c2.4-2.1,7.9-0.8,12.1-0.7
		c4,0,8,0,11.9,0.5c6.6,0.9,10.5,5.2,10.9,11.1c0.4,6.1-2.8,10.6-8.9,12.9c-4.7,1.8-9.5,0.9-14.7,1.2
		C1679.4,509.3,1674,511.7,1671.6,508.8z"/>
	<path d="M472.8,503c4.7-12.9-4.4-24.8-19.6-25.3c-8.5-0.3-17,0.1-25.5-0.2c-3.3-0.1-4.1,0.9-4.1,4.1c0.2,18.3,0.1,36.6,0.1,54.9
		c0,2.3-0.5,4.4,3.3,4.4c3.6,0,4.1-1.4,3.9-4.4c-0.2-2.3-0.1-4.7,0-7c0.1-4.3-1.4-10.1,0.8-12.5c2.6-2.9,8.5-0.5,12.9-1
		c3.5-0.4,5.5,1.1,7.3,3.8c3.7,5.3,8.1,10.2,11.4,15.7c3,5,6.7,6.2,12.4,4.7c-6.3-8.5-12.5-16.8-18.8-25.2
		C464.1,513.1,470.2,510.2,472.8,503z M432.5,509.7c-2.1,0.1-1.6-1.7-1.6-3c0-3.3,0-6.7,0-10.7c0.5-3.3-1.9-8.8,0.9-11.2
		c2.3-2,7.6-0.7,11.6-0.7c4.1,0,8.3,0,12.4,0.5c6.6,0.9,10.5,5.2,10.9,11.1c0.4,6.1-2.7,10.9-8.9,12.8
		C449.5,511.1,441,509.3,432.5,509.7z"/>
	<path d="M1869.7,628.1c7.2-2,13.4-4.9,16-12.3c4.5-12.9-4.7-24.6-20-25.1c-8.6-0.3-17.3,0-26-0.1c-2.1,0-3.3,0.2-3.3,2.9
		c0.1,19.1,0.1,38.3,0,57.4c0,3.1,1.6,3,3.7,3c2.1,0,3.8,0.2,3.6-3c-0.3-6.1-0.1-12.3-0.1-18.5c0-1.4-0.6-3.2,1.9-3.2
		c8.5,0.1,17.7-2.5,22.6,8.3c1.9,4.3,6,7.6,8.4,11.7c2.8,5.1,6.8,5.2,12,4.2c-3.4-4.5-6.4-8.6-9.5-12.7
		C1876,636.5,1872.9,632.4,1869.7,628.1z M1867.6,622.4c-7.3,0.7-14.6,0.3-22,0.4c-2.1,0-2-1.2-1.9-2.6c0-3.5,0-7,0-11.3
		c0.4-3.4-1.8-8.8,0.8-11.2c2.2-2,7.6-0.6,11.6-0.6c3.7,0,7.3-0.1,11,0.4c7.8,0.9,12.2,5.2,12.4,11.8
		C1879.8,615.8,1875,621.6,1867.6,622.4z"/>
	<path d="M2426.6,515c7.5-2,13.6-5,16.1-12.5c4.3-12.8-4.7-24.3-19.8-24.9c-8.5-0.3-17,0.1-25.5-0.2c-3.4-0.1-4.1,1-4,4.1
		c0.1,18.3,0.1,36.6,0,54.9c0,3,0.3,4.3,3.9,4.3c3.8,0,3.3-2.1,3.3-4.4c0-2.3,0-4.7,0-7c0.1-4.3-1.5-10.1,0.7-12.6
		c2.6-2.8,8.5-0.5,12.9-1c3.5-0.4,5.5,1.1,7.3,3.8c3.8,5.5,8.2,10.5,11.7,16.1c3,4.8,6.7,5.7,12.1,4.3c-3.2-4.2-6.2-8.3-9.2-12.4
		C2433.1,523.7,2430.1,519.6,2426.6,515z M2402.6,509.8c-2.1,0-1.9-1.3-1.9-2.7c0-3.3,0-6.7,0-10.8c0.4-3.5-1.9-9.2,0.9-11.7
		c2.4-2.1,8-0.6,12.1-0.6c3.5,0,7,0,10.5,0.4c7.8,0.9,12.2,5.3,12.4,11.9c0.2,6.4-4.3,12.1-11.5,12.9
		C2417.6,510.1,2410.1,509.6,2402.6,509.8z"/>
	<path class="st0" d="M532.6,476.4c-18.6-0.1-32.8,14.3-32.8,32.9c0.1,18.4,13.9,32.4,32.1,32.4c18.3,0,32.5-14.3,32.5-32.7
		C564.5,490.6,550.8,476.5,532.6,476.4z M532.1,535.4c-14-0.2-24.8-11.7-24.8-26.4c0-14.8,10.9-26.3,24.9-26.2
		c14.2,0,25.2,11.8,25.1,26.7C557.1,524.3,546.1,535.6,532.1,535.4z"/>
	<path d="M2248.6,478.5c-8.7-1.7-17.6-0.4-26.4-0.9c-2.9-0.2-3.6,0.8-3.6,3.6c0.2,9.5,0.1,19,0.1,28.5c0,9.3,0.1,18.7,0,28
		c0,2.2,0.2,3.3,2.9,3.2c7.8-0.2,15.7,0.2,23.5-0.3c16.4-1.1,28.3-13.6,29.2-30C2275.1,494.8,2264.6,481.6,2248.6,478.5z
		 M2241.9,534.4c-5.1,0.2-11.7,1.7-15-0.9c-3.2-2.4-0.7-9.3-1-14.3c-0.2-3.3,0-6.7,0-10c0-7.2,0.1-14.3-0.1-21.5
		c-0.1-2.7,0.6-3.9,3.6-3.8c4.1,0.2,8.3-0.1,12.5,0.1c15.2,0.6,25.1,10.8,25,25.4C2266.8,523.8,2256.8,533.8,2241.9,534.4z"/>
	<path class="st0" d="M622.6,478.3c-8.6-1.6-17.3-0.3-25.9-0.8c-2.9-0.2-3.6,0.7-3.6,3.6c0.2,9.5,0.1,19,0.1,28.5
		c0,9.3,0.1,18.7,0,28c0,2.2,0.4,3.3,3,3.2c7.5-0.2,15,0.2,22.5-0.2c16.4-0.9,29.2-13.4,30.1-29.1
		C649.6,494.7,639.3,481.5,622.6,478.3z M641.5,511.4c-1.4,13.5-10.9,22.4-25,23c-5.1,0.2-11.6,1.7-15-0.8c-3.2-2.4-0.7-9.3-1-14.2
		c-0.2-3.5,0-7,0-10.5c0-7.1,0.1-14.3-0.1-21.4c-0.1-2.6,0.7-3.5,3.3-3.3c6.3,0.3,12.7-0.6,18.9,0.9
		C634.9,488,642.7,499.2,641.5,511.4z"/>
	<path class="st0" d="M620.6,591.3c-8.6-1.6-17.3-0.3-25.9-0.8c-2.9-0.2-3.6,0.8-3.6,3.6c0.2,9.5,0.1,19,0.1,28.5
		c0,9.3,0.1,18.7,0,28c0,2.2,0.4,3.3,3,3.2c7.5-0.2,15,0.2,22.5-0.2c16.4-0.9,29.2-13.4,30.1-29.1
		C647.6,607.7,637.3,594.5,620.6,591.3z M639.5,624.6c-1.5,13.3-10.9,22-24.7,22.7c-4.3,0.2-8.7-0.1-13,0.1
		c-2.7,0.1-3.4-0.9-3.3-3.4c0.1-7.1,0-14.3,0-21.4c0-7.3,0.1-14.6-0.1-21.9c-0.1-2.8,0.7-3.8,3.6-3.6c6.3,0.3,12.7-0.6,18.9,1
		C633.1,601.2,640.9,612.5,639.5,624.6z"/>
	<path class="st0" d="M1205.3,593.9c0-3.1-1.3-3.3-3.8-3.4c-2.6-0.1-3.4,0.8-3.3,3.4c0.2,6.7,0.1,13.3,0.1,20c0,8.6,0,17.2,0,27.3
		c-4.1-5.1-7.3-9.1-10.4-13.1c-9.2-11.6-18.4-23.2-27.3-35c-2.2-2.9-4.9-2.8-7.5-2.2c-2.6,0.6-1.2,3.4-1.2,5.1c-0.1,18,0,36-0.1,54
		c0,2.7,0.2,4.1,3.6,4.1c3.6,0,3.5-1.7,3.5-4.2c-0.1-14.2-0.1-28.3,0-42.5c0-1.3-0.7-2.9,0.8-4.2c3.1,4,6.2,7.9,9.3,11.8
		c9.6,12.2,19.2,24.2,28.7,36.5c1.9,2.5,4.1,2.9,6.5,2.2c2.4-0.7,1.2-3.1,1.2-4.7C1205.3,630.6,1205.1,612.3,1205.3,593.9z"/>
	<path d="M2332.5,476.4c-18.3,0.1-32.3,14.3-32.3,32.9c0,18.7,13.9,32.6,32.5,32.5c18-0.1,32-14.3,32-32.6
		C2364.7,490.4,2351,476.4,2332.5,476.4z M2332.6,535.4c-14.2,0-25.1-11.6-25-26.7c0.1-14.9,11-26.2,25.1-26
		c13.9,0.2,24.9,11.8,24.9,26.4C2357.6,523.9,2346.6,535.4,2332.6,535.4z"/>
	<path d="M1437.1,476.4c-18.6-0.1-32.8,14-32.8,32.8c0,18.5,13.7,32.5,31.9,32.5c18.4,0.1,32.5-14.1,32.6-32.5
		C1468.8,490.6,1455.2,476.6,1437.1,476.4z M1436.4,535.4c-14.1-0.1-24.8-11.5-24.9-26.3c0-14.9,10.6-26.3,24.7-26.3
		c14.1,0,25.4,11.8,25.3,26.6C1461.5,524.1,1450.4,535.6,1436.4,535.4z"/>
	<path d="M942.1,476.4c-18.4-0.1-32.5,13.9-32.6,32.5c-0.1,18.6,13.3,32.7,31.5,32.8c18.5,0.2,32.6-13.7,32.8-32.2
		C974.1,490.6,960.6,476.6,942.1,476.4z M942,535.4c-14.1,0.1-25.3-11.6-25.3-26.5c0-14.8,10.9-26.2,25-26.2
		c14.2,0.1,25.1,11.8,25,26.7C966.6,524.1,955.9,535.3,942,535.4z"/>
	<path d="M1338.8,589.4c-18.3,0-32.2,14.1-32.2,32.8c0,18.6,13.6,32.4,31.9,32.5c18.4,0.1,32.4-14,32.5-32.6
		C1370.9,603.3,1357.3,589.4,1338.8,589.4z M1339,648.4c-14.1,0.1-25.3-11.6-25.3-26.5c0-14.8,10.9-26.3,24.9-26.2
		c14,0,25,11.6,25.1,26.2C1363.8,636.8,1353.1,648.3,1339,648.4z"/>
	<path d="M1120.2,647.6c-10.7,0-21.3-0.1-32,0.1c-2.8,0-3.7-0.7-3.6-3.6c0.2-5,0.3-10,0-15c-0.2-3.4,0.7-4.6,4.3-4.5
		c8.8,0.3,17.6,0,26.5,0.1c2.5,0,3.9-0.1,3.9-3.3c0-3.2-1.7-2.9-3.8-2.9c-9,0-18-0.1-27,0.1c-2.9,0.1-4.2-0.4-3.9-3.7
		c0.3-4.8,0.3-9.7,0-14.5c-0.2-3.2,1-3.8,4-3.8c10.5,0.2,21,0,31.5,0.1c2.3,0,3.6-0.3,3.6-3.2c0-3-1.5-3.1-3.7-3
		c-13,0.1-26,0.1-39,0c-2.9,0-3.6,0.8-3.5,3.6c0.2,9.3,0.1,18.6,0.1,28c0,9.3,0.1,18.6-0.1,28c0,2.6,0.4,3.8,3.4,3.8
		c13.1-0.2,26.3-0.1,39.5,0c2.5,0,3.4-0.5,3.5-3.2C1123.9,647.4,1122.3,647.6,1120.2,647.6z"/>
	<path d="M1632,540.8c2.5,0,3.8-0.2,3.8-3.4c0-3.2-1.7-2.9-3.8-2.9c-10.7,0-21.3,0-32,0.1c-2.4,0-3.6-0.3-3.5-3.2
		c0.3-5.5,0.2-11,0-16.5c-0.1-2.7,0.8-3.3,3.4-3.3c9.2,0.1,18.3,0,27.5,0.1c2.1,0,3.7,0.2,3.8-2.9c0.1-3.3-1.5-3.3-3.9-3.3
		c-9.2,0.1-18.3-0.1-27.5,0.1c-2.7,0-3.4-0.8-3.3-3.3c0.2-4.8,0.3-9.7,0-14.5c-0.2-3.2,0.7-4.2,4.1-4.2c10.5,0.2,21,0,31.5,0.1
		c2.5,0,3.5-0.6,3.5-3.3c0-2.6-1.1-2.9-3.3-2.9c-13.2,0.1-26.3,0.1-39.5,0c-3.1,0-3.5,1.1-3.4,3.7c0.1,9.2,0.1,18.3,0.1,27.5
		c0,9.5,0.1,19-0.1,28.5c0,2.8,0.7,3.7,3.6,3.6C1606,540.7,1619,540.7,1632,540.8z"/>
	<path d="M718.3,647.6c-10.7,0.1-21.3-0.1-32,0.1c-2.7,0-3.8-0.6-3.6-3.5c0.2-5.1,0.3-10.3,0-15.5c-0.2-3.5,1.2-4.1,4.3-4
		c8.7,0.2,17.3,0.1,26,0.1c2.2,0,4.5,0.7,4.5-3.2c-0.1-3.7-2.3-2.9-4.3-2.9c-8.8,0-17.6-0.1-26.5,0c-2.8,0.1-4.2-0.3-4-3.7
		c0.3-4.8,0.3-9.7,0-14.5c-0.2-3.1,0.9-3.9,3.9-3.8c10.5,0.2,21,0,31.5,0.1c2.3,0,3.6-0.2,3.6-3.1c0-3-1.3-3.1-3.6-3.1
		c-13,0.1-26,0.1-39,0c-2.8,0-3.7,0.7-3.6,3.6c0.2,9.3,0.1,18.6,0.1,28c0,9.3,0.1,18.6-0.1,28c-0.1,3.2,0.9,3.8,3.9,3.8
		c13-0.2,26-0.1,39,0c2.4,0,3.5-0.3,3.5-3.2C721.9,647.6,720.5,647.6,718.3,647.6z"/>
	<path class="st0" d="M2112.5,647.6c-10.3,0-20.6-0.2-31,0.1c-3.4,0.1-4.2-1-4-4.2c0.3-5,0.3-10,0-15c-0.2-3.1,0.9-3.9,3.9-3.9
		c9,0.2,18,0,27,0.1c2.3,0,3.6-0.1,3.6-3.1c0-2.8-1.1-3.2-3.5-3.2c-9.2,0.1-18.3-0.1-27.5,0.1c-2.9,0.1-3.7-0.8-3.6-3.6
		c0.2-4.8,0.2-9.7,0-14.5c-0.2-3.1,0.8-4,3.9-3.9c10.3,0.2,20.6,0,31,0.1c2.4,0,4,0.1,4-3.2c0-3.1-1.6-3-3.7-3
		c-13,0-26,0.1-38.9-0.1c-2.9,0-3.6,0.9-3.5,3.6c0.2,9.3,0.1,18.6,0.1,28c0,9.2,0.1,18.3-0.1,27.5c-0.1,3.1,0.5,4.3,4,4.3
		c12.8-0.2,25.6-0.1,38.4-0.1c2.3,0,4.1,0.2,4.1-3.2C2116.7,646.9,2114.5,647.6,2112.5,647.6z"/>
	<path class="st0" d="M1139.9,539.4c-9-20-18.1-39.9-26.9-59.9c-1.1-2.5-2.8-2.3-4.8-2.4c-2.1-0.1-3.4,0.5-4.3,2.5
		c-3.5,8-7.2,16-10.9,24c-5.5,12.2-11,24.4-16.5,36.7c4.8,1.4,8,0.5,9.4-4.5c0.8-3,2.7-5.7,3.7-8.7c0.9-2.5,2.4-3.1,4.9-3
		c6.3,0.2,12.8,0.8,19-0.1c9.6-1.5,14.9,2.2,17,11.3c1.2,5.3,4.5,6.8,9.5,5.2C1140,540.1,1140,539.7,1139.9,539.4z M1094.1,517.6
		c4.8-10.7,9.3-20.9,14.3-32c5,11.3,9.6,21.6,14.2,32C1113,517.6,1103.9,517.6,1094.1,517.6z"/>
	<path class="st0" d="M2160.4,477.1c-2-0.1-3.5,0.1-4.4,2.3c-1.1,2.8-2.4,5.5-3.6,8.2c-7.9,17.5-15.9,35-24,52.9c7,0.5,7,0.5,9.5-5
		c1.2-2.7,2.7-5.4,3.7-8.2c0.9-2.8,2.6-3.3,5.3-3.3c6.2,0.2,12.4,0.8,18.5-0.1c9.6-1.4,15.3,2,17.3,11.5c1.1,5.5,4.7,6.3,9.7,4.7
		c-9.2-20.4-18.5-40.6-27.5-60.9C2163.8,477,2162.2,477.2,2160.4,477.1z M2146,517.6c4.9-10.9,9.4-21,14.3-32
		c4.9,11.1,9.5,21.4,14.3,32C2165,517.6,2155.9,517.6,2146,517.6z"/>
	<path class="st0" d="M1628.5,593c-1-2.3-2.5-3-5-3c-2.7-0.1-3.8,1.1-4.8,3.3c-6,13.5-12.1,26.9-18.2,40.3c-3,6.5-5.9,13.1-8.8,19.6
		c5.5,1.8,8.1-0.5,9.6-5.1c0.9-2.8,2.5-5.4,3.5-8.2c0.8-2.3,2.1-3,4.5-2.9c6.5,0.1,13.1,0.8,19.4-0.1c9.3-1.4,14.7,1.8,16.8,10.9
		c1.1,5,4,7.4,9.8,5.4c-0.2-0.6-0.3-1.2-0.6-1.8C1646.1,632,1637.2,612.6,1628.5,593z M1609.3,630.5c4.7-10.6,9.3-20.8,14.3-31.9
		c5,11.1,9.5,21.3,14.2,31.9C1628.1,630.5,1619,630.5,1609.3,630.5z"/>
	<path class="st0" d="M1921.7,540.3c-9.2-20.4-18.5-40.7-27.6-61.1c-1-2.3-2.7-1.9-4.5-2.1c-2.3-0.3-3.6,0.7-4.6,2.8
		c-4.5,10.2-9,20.3-13.6,30.4c-4.5,10-9.1,20-13.7,30.2c7.1,0.5,7.1,0.5,9.7-5.3c1.2-2.7,2.6-5.4,3.6-8.2c0.8-2.2,2.1-3,4.5-2.9
		c6.3,0.1,12.7,0.7,18.9-0.1c9.6-1.3,15.4,1.7,17.4,11.4C1913,540.6,1916.4,542,1921.7,540.3z M1875.3,517.6
		c4.7-10.6,9.3-20.8,14.3-32c4.9,11.1,9.5,21.2,14.3,32C1894.2,517.6,1885,517.6,1875.3,517.6z"/>
	<path class="st0" d="M2504.3,480.8c-1-2.2-1.9-3.7-4.9-3.9c-3.3-0.1-4.2,1.7-5.3,4.1c-6.2,13.8-12.4,27.5-18.6,41.2
		c-2.7,6-5.4,12-8.2,18c5,1.5,8,0.3,9.4-4.6c0.8-2.7,2.5-5.1,3.3-7.8c1-3.4,3.1-4,6.3-3.9c6,0.3,12.1,0.8,17.9-0.1
		c9.6-1.5,14.9,2.2,17,11.3c1.1,5,4.2,6.8,9.7,5.1c-0.5-1.2-0.8-2.3-1.3-3.3C2521.2,518.3,2512.7,499.6,2504.3,480.8z M2484.9,517.4
		c4.6-10.3,9.2-20.6,14.2-31.8c4.9,11.1,9.4,21.2,14.2,31.8C2503.6,517.4,2494.5,517.4,2484.9,517.4z"/>
	<path class="st0" d="M1973.6,652c-8.9-19.8-18-39.6-26.8-59.5c-1.1-2.4-2.8-2.3-4.8-2.4c-2.4-0.2-3.5,0.9-4.4,3
		c-6.2,14-12.6,27.9-18.9,41.8c-2.8,6.1-5.5,12.3-8.4,18.6c7,0.6,7,0.6,9.4-4.9c1.3-2.9,2.8-5.7,3.8-8.7c0.8-2.3,2.2-2.9,4.5-2.8
		c6.5,0.1,13.1,0.8,19.5-0.1c9.4-1.3,14.6,2,16.7,11.1c1.1,5.1,4.3,7.1,9.5,5.3C1973.7,652.9,1973.8,652.4,1973.6,652z
		 M1953.1,630.8c-8.1-0.1-16.3,0-25.3,0c4.8-10.7,9.4-21,14.4-32.2c4.7,10.4,8.8,19.8,13.1,29.2
		C1956.4,630.4,1955.6,630.8,1953.1,630.8z"/>
	<path class="st0" d="M817.1,590.1c-2.3-0.1-3.6,0.5-4.6,2.8c-2.6,6.3-5.6,12.4-8.4,18.6c-6.3,13.9-12.5,27.7-18.9,41.8
		c5.4,1.6,8.1-0.1,9.5-4.8c0.8-2.8,2.6-5.4,3.6-8.2c0.9-2.8,2.5-3.3,5.2-3.2c6,0.2,12.1,0.8,17.9-0.1c10.2-1.6,15.8,2.3,18,12
		c1.3,5.5,4.9,5.5,9.6,4.4c-9.3-20.6-18.4-40.8-27.5-61C820.6,590,819,590.2,817.1,590.1z M828.4,630.8c-8.3-0.1-16.6,0-25.7,0
		c4.8-10.8,9.4-21.1,14.4-32.1c4.6,10.3,8.9,19.8,13.2,29.3C831.2,630,830.9,630.8,828.4,630.8z"/>
	<path d="M380.9,478.5c-9.7-2-19.6-0.5-29.4-0.9c-2.6-0.1-1.7,2-1.7,3.2c-0.1,9.3,0,18.6,0,28c0,9.7,0.2,19.3-0.1,29
		c-0.1,3.1,1.5,3,3.6,3c2.1,0,3.9,0.2,3.7-2.9c-0.3-5.1,0.1-10.3-0.1-15.5c-0.2-3.2,0.9-3.9,3.9-3.9c6.8,0,13.6,0.7,20.4-1
		c10-2.5,16.3-10.2,16.1-20C397,487.5,391.3,480.6,380.9,478.5z M380.9,510.6c-7.2,2.7-14.9,1.2-22.3,1.4c-2,0.1-1.7-1.6-1.7-2.9
		c0-3.8,0-7.7,0-11.5c0.1,0,0.2,0,0.3,0c0-4.3-1.7-10.1,0.4-12.6c2.5-2.9,8.5-0.8,12.9-0.9c2.6-0.1,5.3,0.1,7.9,0.5
		c6.6,1.1,10.8,5.5,11.3,11.5C390.4,503.2,387.5,508.2,380.9,510.6z"/>
	<path class="st0" d="M725.7,477.5c-3.6,0-3.9,1.5-3.9,4.4c0.1,11.5,0.2,23,0,34.4c-0.2,9.8-4.9,16.3-13,18.3
		c-14,3.5-24.7-4.4-25-18.9c-0.2-11.6-0.1-23.3,0-34.9c0-2.7-0.9-3.3-3.4-3.2c-2.3,0.1-4.1-0.2-3.9,3.2c0.3,6.1,0.1,12.3,0.1,18.5
		c0,0,0.1,0,0.1,0c0,6.2-0.2,12.3,0,18.5c0.7,14.4,10.3,23.7,24.7,24.1c15.9,0.4,26.3-7.8,27.3-22.7c0.8-12.4,0.4-24.9,0.5-37.4
		C729.3,479.1,729.4,477.4,725.7,477.5z"/>
	<path d="M2176.3,621.6c-3.2-1.3-6.7-2-10-3c-3.3-1-6.7-1.8-10-3.1c-4.2-1.7-6.9-4.6-6.6-9.5c0.3-5,3.4-7.8,7.8-9.3
		c2.8-1,5.8-1.2,8.9-0.8c4.8,0.8,9.4,2.3,13.2,5.4c2.5,2,3.1-0.3,4-1.6c0.8-1.1,2.7-2,0.5-3.9c-8.5-7.2-25.3-8.5-34.3-2.3
		c-10.5,7.2-9.7,22,1.6,27.8c4.2,2.2,8.7,3.2,13.2,4.2c3.9,0.9,7.8,1.7,11.2,3.9c6,3.8,6.4,11.6,0.8,16c-2.6,2-5.6,2.9-8.8,3.1
		c-7.6,0.4-14.6-1.7-20.3-6.7c-2.5-2.1-3.6-1.4-5.5,0.7c-2.6,2.8-0.1,3.7,1.4,4.9c6.5,4.8,13.7,7.3,22.2,7.2c3.2,0.2,6.6-0.2,10-1.4
		c7.5-2.7,12-8.7,12.2-16C2187.9,629.8,2184.4,624.8,2176.3,621.6z"/>
	<path d="M2100.8,540.8c2.2,0,4.6,0.8,4.5-3.2c0-4.2-2.7-2.9-4.7-2.9c-7.8-0.1-15.7,0-23.5,0c-4,0-8.1,0-12.9,0
		c6.6-8.4,12.5-15.9,18.5-23.5c7-8.9,14-17.8,21-26.7c1.5-1.9,2-4,1.2-6c-0.7-1.7-2.6-0.8-4-0.8c-13.7-0.1-27.3,0-41,0
		c-2.1,0-4.2-0.6-4.2,3c0,3.4,1.8,3.2,4.1,3.2c11.5,0,22.9,0,35.7,0c-6.8,8.7-12.9,16.5-19,24.3c-6.8,8.6-13.5,17.3-20.4,25.9
		c-1.5,1.9-2.2,4-1.3,6c0.8,1.8,3,0.8,4.5,0.8C2073.2,540.8,2087,540.8,2100.8,540.8z"/>
	<path d="M1802.5,590.5c-3,0-3.9,0.7-3.9,3.8c0.2,11.5,0.2,23,0.1,34.4c-0.1,10.1-4.9,16.8-13.1,18.9c-14.1,3.5-24.7-4.3-25-18.9
		c-0.2-11.6-0.1-23.3,0-34.9c0-2.8-1-3.5-3.5-3.2c-1.8,0.2-4-0.9-4,2.6c0.3,13-0.2,26,0.5,38.9c0.9,14.5,11,22.7,26.4,22.6
		c14.7-0.1,24.6-8.9,25.6-23.1c0.4-6.3,0.1-12.6,0.1-19c0.1,0,0.1,0,0.2,0c0-6.2-0.1-12.3,0.1-18.5
		C1806,591.6,1805.5,590.5,1802.5,590.5z"/>
	<path class="st0" d="M1434,622.6c-3-1.4-6.2-2.3-9.4-3.3c-4.4-1.3-9.1-2-13.3-4c-3.8-1.8-6.1-4.6-6.1-8.9c0.1-4.5,2.5-7.4,6.5-9.1
		c3.1-1.4,6.4-1.8,9.8-1.3c4.8,0.7,9.5,2.1,13.3,5.2c3,2.5,3.4-0.5,4.7-1.8c2.1-1.9,0.7-2.9-1-4.1c-7.3-4.8-15.2-6.6-23.8-5.4
		c-6.9,1-12.7,4.2-15.6,11c-4.2,9.7,0.8,18.7,12.4,22.5c5.7,1.8,11.6,3,17.2,4.9c4.7,1.5,7.5,4.7,7.1,10.1c-0.4,5.2-3.5,8.1-8.3,9.3
		c-8.4,2.2-16.5,0.7-23-4.8c-4.7-3.9-6.6-2.1-8.6,2.2c1.3,1,2.5,2.1,3.9,3c10.9,7,22.3,9.4,34.4,3.5c6.1-2.9,8.8-8.3,8.9-15
		C1443.3,630,1439.9,625.3,1434,622.6z"/>
	<path class="st0" d="M1794.6,533c0.7-0.7,2.9-1.4,1.3-3c-1.2-1.2-2.1-3.5-4-3.1c-1.5,0.3-2.6,1.9-4,2.9c-10.9,8.1-24.8,7.3-33.5-2
		c-9.2-9.7-9.6-26.7-0.9-36.6c8.7-9.9,22.8-11.7,33.6-3.1c5,3.9,6.8,1.9,9.1-2.1c-8.9-8.8-19.8-11.3-31.7-8.8
		c-13.7,2.9-22.6,13.7-24.4,28.7c-1.6,13.3,5.5,26.8,17.4,32.7C1769.3,544.5,1785.1,542.2,1794.6,533z"/>
	<path class="st0" d="M811.6,533.1c0.7-0.7,2.9-1.3,1.3-3c-1.2-1.2-2.1-3.5-4-3.2c-1.4,0.3-2.6,1.9-4,2.9
		c-10.9,8.2-24.8,7.4-33.5-1.9c-9.2-9.7-9.6-26.7-0.9-36.6c8.7-10,22.7-11.7,33.6-3.2c4.9,3.9,6.8,2.1,9.1-1.9
		c-9.1-8.5-20.3-11.7-31.7-9c-13.6,3.2-22.6,13.8-24.4,28.8c-1.7,13.3,5.5,26.8,17.4,32.7C786.3,544.5,802,542.2,811.6,533.1z"/>
	<path d="M1379,529.4c-1.5-1.1-2.4-4.2-5-1.5c-0.9,0.9-2,1.7-3.1,2.5c-9,6.3-20,6.7-28.6,1.1c-8.8-5.9-13.1-17.2-10.7-28.6
		c2.1-10.4,9.6-17.7,20-19.6c9.4-1.7,16.9,2.1,23.6,8.1c5.9-5.4,5.9-5.4-0.6-9.7c-8.1-5.3-17.1-6.5-26.3-4.5
		c-13.3,2.9-22.6,13.7-24.4,27.7c-1.8,14,5,27.5,16.8,33.5c12.1,6.2,27.6,4,37.6-5.3C1379.4,532.1,1381.3,531.1,1379,529.4z"/>
	<path class="st1" d="M881.9,484.2c2.7,0.1,3.7-0.6,3.8-3.6c0-3.1-1.5-3-3.7-3c-14.3,0-28.6,0.1-42.9,0c-2.3,0-3.5,0.3-3.5,3.1
		c0,3,1.1,3.6,3.8,3.5c4.3-0.2,8.7,0.2,13-0.1c3.8-0.3,4.7,1,4.6,4.6c-0.2,16.1,0,32.3-0.1,48.4c0,2.6,0.5,3.8,3.5,3.8
		c2.9,0,4.1-0.6,4-3.8c-0.2-8.3-0.1-16.6-0.1-24.9c0-7.8,0.2-15.6-0.1-23.4c-0.2-3.9,1.2-4.9,4.8-4.6
		C873.2,484.4,877.6,484,881.9,484.2z"/>
	<path class="st0" d="M1234.6,537.5c-0.3-5.8,0.1-11.6-0.1-17.5c-0.1-3.2,0.8-5.7,2.6-8.3c6.2-8.8,12.3-17.7,18.5-26.6
		c1.6-2.4,3.2-4.8,4.7-7.1c-5.8-1.8-8.9,0.5-11.7,5.1c-5.4,8.7-11.5,17.1-17.6,26.1c-5.9-8.8-12-17.1-17.3-25.9
		c-2.9-4.8-6.2-7-12.3-5.2c4.6,6.8,8.6,13.8,13.7,19.7c9.7,11.3,14.6,23.8,12.2,38.7c-0.1,0.3,0,0.7,0,1c-0.5,2.8,1,3.3,3.4,3.2
		C1233,540.8,1234.8,540.9,1234.6,537.5z"/>
	<path d="M1279.3,590.6c-14.7,0.1-29.3,0.1-44,0c-2.8,0-2.8,1.3-2.8,3.3c0,2.2,0.3,3.4,2.9,3.3c5-0.2,10,0.1,15-0.1
		c2.6-0.1,3.4,0.8,3.3,3.4c-0.2,8.3-0.1,16.7-0.1,25c0,8.2,0.1,16.3-0.1,24.5c-0.1,2.8,0.4,4,3.7,4c3.5,0,3.6-1.5,3.6-4.2
		c-0.1-16,0.1-32-0.1-48c0-3.6,0.7-5.1,4.6-4.8c4.6,0.4,9.3,0,14,0.1c2.7,0.1,2.8-1.4,2.9-3.4
		C1282.4,591.4,1281.8,590.5,1279.3,590.6z"/>
	<path d="M1724.3,590.6c-14.7,0.1-29.3,0.1-44,0c-2.7,0-2.8,1.3-2.8,3.3c0,2.1,0.3,3.4,2.9,3.3c5-0.2,10,0.1,15-0.1
		c2.6-0.1,3.4,0.7,3.4,3.4c-0.2,8.3-0.1,16.7-0.1,25c0,8.2,0.1,16.3-0.1,24.5c-0.1,2.8,0.3,4.1,3.7,4.1c3.4,0,3.6-1.4,3.6-4.1
		c-0.1-15.7,0.2-31.3-0.2-47c-0.1-5.1,1.5-6.3,6.1-5.8c4.1,0.4,8.3,0,12.5,0.1c2.7,0.1,2.9-1.3,2.9-3.4
		C1727.3,591.5,1726.9,590.5,1724.3,590.6z"/>
	<path class="st0" d="M1987.1,534.4c-8.8,0.1-17.6-0.2-26.5,0.1c-4.2,0.2-5.7-0.8-5.6-5.3c0.3-16,0.1-31.9,0.2-47.9
		c0-2.6-0.4-3.8-3.4-3.8c-2.8,0.1-4.1,0.4-4,3.8c0.3,9.1,0.1,18.3,0.1,27.5c0,9.5,0.1,19-0.1,28.5c0,2.8,0.8,3.7,3.6,3.7
		c12-0.1,24-0.1,35.9,0c2.3,0,3.6-0.1,3.6-3.1C1991.1,534.5,1989.6,534.4,1987.1,534.4z"/>
	<path d="M2039.8,647.4c-9.2,0.1-18.3-0.2-27.5,0.1c-3.7,0.1-4.7-0.9-4.7-4.6c0.2-16.2,0-32.3,0.2-48.5c0-2.9-0.5-4-3.7-4
		c-3.5,0-3.6,1.5-3.5,4.2c0.1,9.2,0,18.3,0,27.5c0,9.3,0.1,18.7-0.1,28c0,2.6,0.4,3.8,3.4,3.8c12-0.2,24-0.1,36-0.1
		c2.2,0,3.7,0.1,3.8-3C2043.7,647.6,2042.3,647.4,2039.8,647.4z"/>
	<path d="M914.7,647.5c-9.2,0-18.3-0.2-27.5,0.1c-3.6,0.1-4.4-1-4.4-4.5c0.2-16.3,0-32.7,0.1-49c0-2.9-0.9-3.6-3.6-3.6
		c-2.7,0-3.7,0.5-3.7,3.5c0.2,9.3,0.1,18.7,0.1,28c0,9.5,0.1,19-0.1,28.5c0,2.7,0.7,3.3,3.3,3.3c12-0.1,24-0.1,36,0
		c2.6,0,3.8-0.2,3.9-3.4C919,646.8,916.7,647.5,914.7,647.5z"/>
	<path class="st2" d="M2017.8,481.2c0.1,18.6,0.1,37.2,0,55.8c0,3.1,0.9,3.8,3.9,3.9c3.5,0.1,3.6-1.6,3.6-4.2
		c-0.1-9.1,0-18.3,0-27.4c0-9.3-0.1-18.6,0.1-27.9c0.1-3.2-0.9-3.9-3.9-3.9C2018.5,477.5,2017.8,478.4,2017.8,481.2z"/>
	<path d="M953,594.3c0-3.2-0.9-3.8-3.9-3.8c-3.1,0-3.4,1.2-3.4,3.8c0.1,9.3,0.1,18.6,0.1,27.9s0.1,18.6,0,27.9
		c0,2.5,0.2,3.9,3.3,3.8c2.9-0.1,4-0.5,3.9-3.8C952.8,631.5,952.8,612.9,953,594.3z"/>
	<path d="M1827.4,477.5c-2.4,0-3.9,0-3.9,3.3c0.2,18.9,0.2,37.9,0,56.8c0,3.4,1.7,3.1,4,3.2c2.6,0.2,3.4-0.7,3.3-3.3
		c-0.2-9.3-0.1-18.6-0.1-27.9c0-9.6-0.1-19.3,0.1-28.9C1830.9,477.9,1829.7,477.5,1827.4,477.5z"/>
	<path d="M2810.4,80.7c2.2-0.8,4-1.4,5.6-2.1c5.9-2.8,10.7-6.6,12.8-13.2c4.4-13.9-3.4-26.9-18.3-29.7c-13-2.4-26.2-0.5-39.3-1.1
		c-3.5-0.2-4.4,0.9-4.4,4.4c0.2,22.3,0.2,44.6,0,66.9c-0.1,4.6,1.3,6,5.5,5.3c0.8-0.1,1.7-0.1,2.5,0c3.2,0.5,3.9-1,3.8-4
		c-0.2-7.2,0-14.3-0.1-21.5c-0.1-2.6,0.8-3.4,3.4-3.3c4.2,0.2,8.3,0.2,12.5,0c2.5-0.1,4,0.8,5.4,2.7c5.7,7.7,11.6,15.4,17.5,23.1
		c1,1.3,1.7,3,3.7,3c3.9,0,7.9,0,12.9,0c-4.3-5.7-8-10.5-11.7-15.3C2818.2,90.9,2814.4,85.9,2810.4,80.7z M2780.5,72.1
		c-1.5,0-2-0.7-2-2.1c0-7.5,0.1-15,0-22.5c0-2.1,1-2.5,2.7-2.4c3.7,0.1,7.3,0,11,0c0-0.1,0-0.1,0-0.2c4.5,0.2,9,0.1,13.4,0.7
		c7.5,1,11.9,5.7,12.2,12.2c0.2,6.8-4,12.1-11.4,13.5C2797.9,73,2789.2,71.8,2780.5,72.1z"/>
</g>
</svg>
